<svg xmlns="http://www.w3.org/2000/svg" viewBox="0 0 1279.56 985.69"><defs><style>.cls-1{fill:#fff;}</style></defs><g id="Capa_2" data-name="Capa 2"><g id="Capa_1-2" data-name="Capa 1"><path class="cls-1" d="M1143.27,1.46c-9.2,2.9-17.3,9.5-24.1,19.7-3.3,5-9.8,20.5-53.7,128.9l-16.1,39.8H22l-6.1,3.1c-9.3,4.6-14.6,12.1-15.8,22.1-.7,6.3,4.1,29.5,8.2,39.2,3,7.1,11.3,34,51.4,166.6,9.4,31.1,19.7,65.3,23,76,5,16.6,23,76,49.6,163.7,3.5,11.7,9.3,31,13,42.9,5.9,19.6,6.5,22.5,6.8,31.7.4,15.5,4.7,23,14.8,25.8,4.6,1.2,77.8,1.4,87.2.2,3.6-.4,4.7-.3,4.2.6a2.52,2.52,0,0,1-1.8,1.1,48.77,48.77,0,0,0-8.2,3.2c-24.5,11-46.6,33.3-57.1,57.6-19.4,44.7-10,95.9,23.8,129.4,61.9,61.3,164,32.1,186.4-53.1,3.4-12.9,4.3-35.3,1.9-49a118.08,118.08,0,0,0-30.5-60.5c-10.6-11.2-28.4-22.7-42.6-27.6l-5-1.7,26.5-.7c25.8-.6,171.5-2.1,308-3.1,37.1-.3,69.5-.8,72-1,6-.5,2.5.9-6,2.5-19.6,3.6-43.4,16.9-57.3,31.9-21.3,23.2-31.7,49.3-31.7,79.9,0,31.6,10.4,58,31.4,80,16.1,16.8,33.8,27,55.6,32.1,60.6,14.3,121.5-25.8,134.5-88.3,7.7-37.5-4.1-77.8-30.7-104.5-18.3-18.4-37.9-28.4-63.8-32.5-6.4-1,1.9-1.3,58.5-2,42.9-.4,67.3-1.1,69.7-1.8a11.32,11.32,0,0,0,5.2-3.2,75.64,75.64,0,0,1,6.8-7.6c4.6-4.8,6.4-8.1,14-25,4.7-10.7,13.8-31,20.1-45,24-53.5,38.3-85.3,48.7-108.5,5.9-13.2,40.8-90.8,77.5-172.5s67.4-150.5,68.1-153,10.5-25.2,21.9-50.5,21.6-47.9,22.6-50.2l1.8-4.3,18.8,19.9c10.3,10.9,20.6,22,22.7,24.6,9.6,11.5,28.8,13.4,38.2,3.7,10.5-10.9,23.4-53.3,21-69.3-.6-4.2-1.5-5.3-9.9-13.1a221.16,221.16,0,0,1-19.7-21.8c-35.7-45.3-41.6-51.7-56.1-61.5C1171.77,1.76,1156.87-2.64,1143.27,1.46Zm-154.2,319.6c-8.6,21.1-16.3,40-17.1,42.2l-1.6,3.8-5.1-.6c-2.8-.3-189-.6-413.7-.6H142.87l-2-7.8c-10.4-39.1-19.2-73.1-19.2-74.1,0-.8,111.1-1.1,441.4-1.1h441.5Zm-56.8,139.5c-.4,1-5.7,14.3-11.8,29.5l-11.2,27.8H183.07l-7.3-27.8c-4-15.2-7.5-28.5-7.7-29.5-.5-1.6,18.2-1.7,382.1-1.7C914.27,458.86,932.87,459,932.27,460.56ZM860,639.06c-6.3,15.6-11.7,28.9-12,29.5-.4,1-63.8,1.3-312.3,1.3-190.4,0-312.1-.4-312.5-.9-.5-.9-15.5-56.6-15.5-57.7,0-.2,149.4-.4,331.9-.4h331.9Z"/></g></g></svg>