<svg xmlns="http://www.w3.org/2000/svg" viewBox="0 0 118.89 146.56"><defs><style>.cls-1{fill:#fff;}</style></defs><g id="Capa_2" data-name="Capa 2"><g id="Capa_3" data-name="Capa 3"><path class="cls-1" d="M67.76,121.58a65.76,65.76,0,0,0,40.54.55c1.53-.48.87-2.89-.67-2.41a63.35,63.35,0,0,1-39.2-.55c-1.53-.52-2.18,1.89-.67,2.41Z"/><path class="cls-1" d="M66.62,120.83q.34,12.26.12,24.53a1.25,1.25,0,0,0,2.5,0q.23-12.27-.12-24.53c-.05-1.61-2.55-1.62-2.5,0Z"/><path class="cls-1" d="M107.44,120.3l.15,16.35a1.25,1.25,0,0,0,2.5,0l-.15-16.35a1.25,1.25,0,0,0-2.5,0Z"/><path class="cls-1" d="M69.45,120c.58-9.34,1.38-18.69,1.67-28S70,73.36,68.24,64.13c-.29-1.58-2.7-.91-2.41.66C67.54,74,68.92,83.06,68.6,92.43c-.32,9.19-1.08,18.38-1.65,27.56-.1,1.61,2.4,1.6,2.5,0Z"/><path class="cls-1" d="M66.9,65.3c1.93,2.88,5,4.29,8.11,5.58A97.44,97.44,0,0,0,86.61,75a46.75,46.75,0,0,0,11.87,1.76c3.33,0,7.26-.2,10.17-2a5.83,5.83,0,0,0,2.75-3.6c.46-2.09-.87-4.13-.35-6.15a1.25,1.25,0,0,0-2.41-.67,7,7,0,0,0,0,3,10.66,10.66,0,0,1,.43,2.9c-.2,1.77-2,2.71-3.54,3.19-4,1.26-8.7,1-12.81.34A67.49,67.49,0,0,1,79.76,70.1c-3.59-1.36-8.44-2.69-10.7-6.06C68.17,62.71,66,64,66.9,65.3Z"/><path class="cls-1" d="M108.35,64.35c2.61,18.57-4.09,37.3.25,55.77.37,1.56,2.78.9,2.41-.67-4.33-18.39,2.35-37.21-.25-55.77-.22-1.58-2.63-.91-2.41.67Z"/><path class="cls-1" d="M69.16,64.73C74.34,60.12,82.45,60,89,59.63a46.22,46.22,0,0,1,11.45.55c2.86.57,7.75,1.56,8.87,4.73.54,1.51,3,.86,2.41-.66-1.31-3.7-5.4-5.18-8.9-6.09A44.2,44.2,0,0,0,89.9,57.08a87.83,87.83,0,0,0-12.22,1.23A21,21,0,0,0,67.4,63c-1.21,1.07.57,2.83,1.76,1.77Z"/><path class="cls-1" d="M102.69,84.6c4.26,9,1.93,19.09-.28,28.29-.19.78,1,1.12,1.2.33,2.31-9.57,4.58-19.92.15-29.25-.34-.73-1.42-.1-1.07.63Z"/><path class="cls-1" d="M94.83,87A71.9,71.9,0,0,1,94,114.11c-.18.78,1,1.12,1.2.33A73.52,73.52,0,0,0,96,86.63c-.13-.8-1.34-.46-1.21.33Z"/><path class="cls-1" d="M87,85.77a58.59,58.59,0,0,1,.31,24.94c-.16.78,1,1.12,1.21.33a60.38,60.38,0,0,0-.31-25.6c-.18-.79-1.39-.46-1.21.33Z"/><path class="cls-1" d="M78.57,85.23a14.07,14.07,0,0,1,.77,5.59c0,1.59,0,3.19,0,4.78a19,19,0,0,1-2.74,9.54c-.44.68.64,1.3,1.08.63A20.27,20.27,0,0,0,80.54,95.6c.1-1.82.08-3.64,0-5.46a13.72,13.72,0,0,0-.92-5.54c-.33-.73-1.41-.1-1.08.63Z"/><path class="cls-1" d="M78.48,1.22c9.64,2,17.79,7.77,25,14.25,3.61,3.26,7.2,6.64,10.49,10.23a12.68,12.68,0,0,1,3.62,6.48c.37,2.5-.48,5.1-2.85,6.28-4.26,2.1-9.25-.53-12.84-2.79s-7-4.91-11.16-5.94c-4.58-1.14-9.31-.05-13.48,2a37.64,37.64,0,0,0-6.3,3.95,19.81,19.81,0,0,0-4.73,4.63c-1.39,2.13-1.33,4.31-1,6.75a14.5,14.5,0,0,1-.62,6.41c-1.35,4.05-4,7.53-5.88,11.31a19.07,19.07,0,0,0-2.11,12.34c.48,2.7,1.38,5.3,2.12,7.94a42,42,0,0,1,1.51,8.7c.13,2.13.85,6.58-1.93,7.27a9.83,9.83,0,0,1-3.42,0,29.57,29.57,0,0,1-3.61-.61c-4.95-1.16-9.06-3.9-10.73-8.88S39,81,39.45,75.9a87.29,87.29,0,0,1,3.26-16.56c1.23-4.35,2.54-9,1.92-13.53a12.11,12.11,0,0,0-6.86-9.41c-4.06-1.95-8.73-2.24-13.16-2.28A72.28,72.28,0,0,0,.43,38.05c-.76.26-.43,1.46.33,1.2A72.4,72.4,0,0,1,18,35.61c5.12-.42,10.6-.57,15.62.66,4.77,1.17,8.73,4.1,9.66,9.16.88,4.85-.76,9.91-2.08,14.53a82.1,82.1,0,0,0-3.08,16.65c-.37,5.08-.49,10.7,1.27,15.56a14.2,14.2,0,0,0,8.9,8.63,29,29,0,0,0,6.7,1.42c1.9.21,4.32.44,5.6-1.31s.94-4.66.83-6.7A42.74,42.74,0,0,0,60.23,86C58.9,80.75,56.5,75.46,57.93,70,59,65.68,61.72,62,63.77,58.2a25.1,25.1,0,0,0,2.31-5.57,18.18,18.18,0,0,0,.19-6.74c-.31-3,.8-5.17,3-7.2a35.86,35.86,0,0,1,6.21-4.59c4.5-2.68,9.89-4.49,15.12-3.12,4.39,1.15,8,4.15,11.77,6.43,3.46,2.07,7.74,3.86,11.8,2.61,4.28-1.32,5.65-6,4.2-9.9-1.64-4.45-5.9-7.81-9.2-11-6.91-6.73-14.39-13.3-23.43-17A38.55,38.55,0,0,0,78.81,0c-.78-.17-1.12,1-.33,1.2Z"/><path class="cls-1" d="M89.24,31.15a17.56,17.56,0,0,1,4.28,6.71,18.68,18.68,0,0,1,.56,1.94c.17.77.41,1.51-.42,1.91a7.21,7.21,0,0,1-4,.5C84,41.44,80.35,36.32,76,33.12c-.64-.48-1.27.61-.63,1.08,5,3.66,9.47,10.08,16.42,9.28,1.1-.13,2.81-.44,3.45-1.47s0-2.81-.34-3.89a18.92,18.92,0,0,0-4.79-7.85c-.58-.57-1.46.32-.89.88Z"/><path class="cls-1" d="M66.87,40.83l6.64,2.6a34.56,34.56,0,0,0,6.42,2.28,4.72,4.72,0,0,0,4.59-1.35,3.24,3.24,0,0,0,.45-3.9c-.44-.67-1.52,0-1.08.63.75,1.13-.06,2.56-1.15,3.14-1.61.88-3.71,0-5.27-.58C74,42.32,70.63,41,67.2,39.62c-.74-.29-1.07.91-.33,1.21Z"/></g></g></svg>