<svg xmlns="http://www.w3.org/2000/svg" viewBox="0 0 76.43 152.71"><defs><style>.cls-1{fill:#fff;}.cls-2{fill:#f0e63c;}</style></defs><g id="Capa_2" data-name="Capa 2"><g id="Capa_3" data-name="Capa 3"><path class="cls-1" d="M24.34,4.24A209.39,209.39,0,0,1,46.88,28.86,189.35,189.35,0,0,1,64.26,56.22a75.57,75.57,0,0,1,6,13.69c1.1,3.79,1.87,8.33.12,12.06-2.11,4.47-7.14,5.83-11.59,6.78a60.6,60.6,0,0,1-17.21,1c-13.24-1-26-5.4-38.45-9.8A2.53,2.53,0,0,0,.09,81.65a2.54,2.54,0,0,0,1.75,3.07c11.9,4.21,24,8.2,36.55,9.67a70,70,0,0,0,18.12-.17c5.47-.8,11.83-2.12,15.8-6.29,7.4-7.78,3.34-19.66-.64-28A189.39,189.39,0,0,0,54,30.16,212.09,212.09,0,0,0,27.88.7C25.55-1.51,22,2,24.34,4.24Z"/><path class="cls-2" d="M41.69,105.74A29.33,29.33,0,0,0,42,95.05a34.29,34.29,0,0,0-3.33-9.48,5.06,5.06,0,0,1-.48-1.35c.05.29-.06-.53,0-.51.39.21-.53.68-.58.77-.2.41-.62-.45.05.24.22.21.44.42.64.64.54.6,1,1.25,1.48,1.89a56.76,56.76,0,0,1,5.44,9.12c1.12,2.37,4.57,1,4.65-1.26a16.93,16.93,0,0,0-2.45-9.44c-1.43-2.36-5.47-.84-4.57,1.93l2.71,8.34,1.35,4.17c.11.32.37,1.87.65,2.07l.07,0c-.24,0,1.12-.78,1-.66.2-.16,0,.37,0,0a13.11,13.11,0,0,0-.27-1.45c-.11-1.43-.19-2.87-.29-4.3l-.59-8.92a2.51,2.51,0,0,0-4.91-.66A38.79,38.79,0,0,0,40.8,101h5L43.93,86.05l-.34,1.26c-.22.36-.4-.13,0,.09-.13-.08.23,0,.38.09a2.55,2.55,0,0,1,1.24.85c1.33,1.37,2.36,3,4.11,3.87,3.48,1.8,8.66-.78,7.59-5.08a2.5,2.5,0,0,0-4.82,1.33c.47,2.79,1.24,6.76-.5,9.16a4.36,4.36,0,0,1-2.71,1.71,1.82,1.82,0,0,1-2-.58l.73,1.77A4.72,4.72,0,0,1,50,96.62L46.3,95.13c.9,3,2.39,7.44-.35,10a2.56,2.56,0,0,1-2.59.65,4.09,4.09,0,0,1-1.89-2.17c-1.23-2.58-.81-5.51-.47-8.4.45-3.74.63-7.62-1.46-10.93A2.51,2.51,0,0,0,35,86.2l2.2,10.14c.63,2.86.92,6.45,3.26,8.52a6.73,6.73,0,0,0,11.06-6.7l-4.57,1.93,3.82,5.68c1.79,2.66,6.12.16,4.32-2.52l-3.82-5.68a2.51,2.51,0,0,0-4.57,1.92,1.77,1.77,0,0,1-1.47,2.13c-1.59.15-2-1.38-2.33-2.63-1.11-4.68-2.06-9.41-3.08-14.12L35.22,86.8c1.76,2.79,1,6.35.66,9.44a17.56,17.56,0,0,0,.71,8.6c1,2.66,3,5.23,5.92,5.89a8,8,0,0,0,8.48-4c2.45-4,1.37-8.77.14-13a2.54,2.54,0,0,0-3.68-1.5,10.07,10.07,0,0,0-3.61,3.61c-.79,1.41-1.63,3.64-1.18,5.28s2.25,2.54,3.64,2.94a7.86,7.86,0,0,0,4.3-.09,9.49,9.49,0,0,0,6.28-6.12c1.21-3.47.59-7.27,0-10.79l-4.82,1.33c-.07-.26.31-.7.28-.84,0,.13-.23.16-.22.15a3.08,3.08,0,0,1-.39.06c-.67-.2-1.64-1.46-2.28-2.21-1.77-2.07-4.24-3.67-7.08-3.06a4.57,4.57,0,0,0-3.09,2.23,4.71,4.71,0,0,0-.13,2.95l.33,2.65L40.8,101a2.58,2.58,0,0,0,2.5,2.5,2.51,2.51,0,0,0,2.5-2.5,34.91,34.91,0,0,1,1.52-13.47l-4.91-.66.8,12.06a11.53,11.53,0,0,0,1.1,5.22,4.85,4.85,0,0,0,4.32,2.39,4,4,0,0,0,3.81-3.32c.33-1.82-.52-3.66-1.07-5.36L47.61,86.27,43,88.19a12.13,12.13,0,0,1,1.77,6.92l4.66-1.27a58.17,58.17,0,0,0-6.62-10.68c-1.22-1.57-2.58-3.14-4.63-3.55a4.25,4.25,0,0,0-4.94,3,7.77,7.77,0,0,0,.89,5.16,34.88,34.88,0,0,1,2.17,5,23.55,23.55,0,0,1,.53,11.58,2.57,2.57,0,0,0,1.74,3.08,2.53,2.53,0,0,0,3.08-1.75Z"/><path class="cls-2" d="M55.16,94.27V93.16l-4.91.67a4.78,4.78,0,0,1,.12.57l-.09-.67a4.61,4.61,0,0,1,0,1.23l.09-.67A4.93,4.93,0,0,1,50,95.54l.25-.6a4.35,4.35,0,0,1-.58,1l.39-.51,0,0,4.18,1.11-.76-3.4A2.53,2.53,0,0,0,52.3,91.7l-.6-.25a1.89,1.89,0,0,0-1,0,1.29,1.29,0,0,0-.63.17,1.85,1.85,0,0,0-.8.52,2.69,2.69,0,0,0-.73,1.77l-.14,2.78a2.5,2.5,0,0,0,4.27,1.77,2.69,2.69,0,0,0,.73-1.77l.14-2.78-4.91.66.76,3.4a2.5,2.5,0,0,0,3.07,1.74A2.53,2.53,0,0,0,53.57,99a7.92,7.92,0,0,0,1-1.41A7.3,7.3,0,0,0,55.11,96a7.53,7.53,0,0,0,0-3.47A2.55,2.55,0,0,0,53.92,91l-.6-.25a1.89,1.89,0,0,0-1,0,1.19,1.19,0,0,0-.63.17,1.83,1.83,0,0,0-.8.51,2.6,2.6,0,0,0-.74,1.77v1.11A2.61,2.61,0,0,0,50.89,96a2.53,2.53,0,0,0,1.77.73A2.57,2.57,0,0,0,54.43,96a2.64,2.64,0,0,0,.73-1.77Z"/><path class="cls-2" d="M51.07,96.15a16.35,16.35,0,0,1,.27,9l4.91.67L57,94.57H52a63.66,63.66,0,0,1-.22,6.62c-.09,1-.19,1.92-.33,2.87a12.86,12.86,0,0,1-.57,3l.64-1.1-.13.14,1.11-.65H37.77q-.9,0,.39.18l1.15,1.49c0,.59,0,.64.09.14.05-.22.09-.44.14-.66s.15-.67.22-1c.19-.83.38-1.66.59-2.49.39-1.6.81-3.2,1.27-4.78A2.5,2.5,0,0,0,36.79,97c-.81,2.84-1.53,5.71-2.14,8.6a5.64,5.64,0,0,0-.2,2.73,2.9,2.9,0,0,0,2.11,2,9.8,9.8,0,0,0,2.42.1H50.27c1.68,0,3.82.35,4.94-1.21.85-1.18.9-3,1.09-4.39A66,66,0,0,0,57,94.57a2.5,2.5,0,0,0-5,0l-.71,11.21c-.17,2.83,4.23,3.37,4.91.66a21.63,21.63,0,0,0-.26-11.62,2.5,2.5,0,0,0-4.83,1.33Z"/><path class="cls-2" d="M39.71,85.79a30.69,30.69,0,0,0,5.77,3.07l3.46,1.42.76.31.38.16c-.28-.12-.29-.13,0,0l1.49.67a2.57,2.57,0,0,0,3.43-.9,2.54,2.54,0,0,0-.9-3.42c-2.13-1-4.34-1.77-6.48-2.72l-.35-.15-.75-.34c-.49-.23-1-.46-1.47-.71a23.26,23.26,0,0,1-2.79-1.69,2.51,2.51,0,0,0-3.42.89,2.56,2.56,0,0,0,.89,3.42Z"/><path class="cls-2" d="M53.85,85.46l-9.27-1.14a27.63,27.63,0,0,1-4-.65,5.57,5.57,0,0,1-.79-.25c.41.18-.7-.37-.32-.17-.18-.21-.23-.25-.14-.12s0,.08-.1-.15c.06.22,0,.19,0-.1a.53.53,0,0,1,0,.35L37.44,85c1.11-.38,2,.13,3.19.82a43.25,43.25,0,0,0,3.86,2.06,32.08,32.08,0,0,0,8.83,2.62,2.58,2.58,0,0,0,3.07-1.74,2.52,2.52,0,0,0-1.74-3.08A28.73,28.73,0,0,1,45.92,83c-3.08-1.54-6.14-4.13-9.81-2.87a2.48,2.48,0,0,0-1.75,1.74,5.36,5.36,0,0,0,2.31,5.44A11.77,11.77,0,0,0,41.94,89c4,.54,7.94,1,11.91,1.47a2.51,2.51,0,0,0,2.5-2.5,2.55,2.55,0,0,0-2.5-2.5Z"/><path class="cls-1" d="M33.27,112q12.27-.21,24.52-.75c1.61-.07,1.62-2.58,0-2.5q-12.26.54-24.52.75a1.25,1.25,0,0,0,0,2.5Z"/><path class="cls-1" d="M31.18,115.89q15.26,1.23,30.58,1.22a1.25,1.25,0,0,0,0-2.5q-15.32,0-30.58-1.22c-1.6-.13-1.6,2.37,0,2.5Z"/><path class="cls-1" d="M28.33,115.63a22.37,22.37,0,0,1-4.06,10.44,1.25,1.25,0,0,0,2.16,1.26,24.85,24.85,0,0,0,4.4-11.7,1.26,1.26,0,0,0-1.25-1.25,1.28,1.28,0,0,0-1.25,1.25Z"/><path class="cls-1" d="M60.8,115.63a16,16,0,0,0,3.78,11.42,1.26,1.26,0,0,0,1.77,0,1.28,1.28,0,0,0,0-1.77,13.39,13.39,0,0,1-3-9.65,1.26,1.26,0,0,0-1.25-1.25,1.28,1.28,0,0,0-1.25,1.25Z"/><path class="cls-1" d="M24.3,127.72a65.76,65.76,0,0,0,40.54.55c1.53-.47.88-2.89-.67-2.41a63.35,63.35,0,0,1-39.2-.55c-1.53-.52-2.18,1.89-.67,2.41Z"/><path class="cls-1" d="M23.16,127q.35,12.25.13,24.53a1.25,1.25,0,0,0,2.5,0Q26,139.23,25.66,127c-.05-1.61-2.55-1.61-2.5,0Z"/><path class="cls-1" d="M64,126.45l.15,16.34a1.25,1.25,0,0,0,2.5,0l-.15-16.34a1.25,1.25,0,0,0-2.5,0Z"/><path class="cls-1" d="M30.91,114.59l2.52-2.49a1.26,1.26,0,0,0,.37-.88,1.28,1.28,0,0,0-.37-.89,1.21,1.21,0,0,0-.88-.36,1.31,1.31,0,0,0-.88.36l-2.53,2.49a1.31,1.31,0,0,0-.36.88,1.27,1.27,0,0,0,.36.89A1.25,1.25,0,0,0,30,115a1.27,1.27,0,0,0,.88-.36Z"/><path class="cls-1" d="M56.64,110a43.66,43.66,0,0,0,3.66,7,1.25,1.25,0,0,0,2.16-1.27c-.68-1-1.31-2.1-1.89-3.19-.29-.55-.57-1.1-.84-1.66l-.36-.79c-.07-.15-.13-.3-.2-.46a2.14,2.14,0,0,0-.1-.22c0,.11,0,.09,0-.05a1.25,1.25,0,0,0-2.41.67Z"/></g></g></svg>