<svg xmlns="http://www.w3.org/2000/svg" viewBox="0 0 46 89.54"><defs><style>.cls-1{fill:#fff;}</style></defs><g id="Capa_2" data-name="Capa 2"><g id="Capa_3" data-name="Capa 3"><path class="cls-1" d="M2,64.56a65.76,65.76,0,0,0,40.54.55c1.53-.48.88-2.89-.67-2.41a63.35,63.35,0,0,1-39.2-.55C1.09,61.63.44,64,2,64.56Z"/><path class="cls-1" d="M.81,63.81q.35,12.25.12,24.53a1.25,1.25,0,0,0,2.5,0q.23-12.27-.12-24.53c-.05-1.61-2.55-1.62-2.5,0Z"/><path class="cls-1" d="M41.63,63.28l.15,16.35a1.25,1.25,0,0,0,2.5,0l-.15-16.35a1.25,1.25,0,0,0-2.5,0Z"/><path class="cls-1" d="M3.64,63c.59-9.34,1.38-18.69,1.67-28S4.15,16.34,2.44,7.11C2.14,5.53-.27,6.2,0,7.77,1.73,17,3.11,26,2.79,35.41,2.48,44.6,1.72,53.79,1.14,63c-.1,1.61,2.4,1.6,2.5,0Z"/><path class="cls-1" d="M1.09,8.28c1.93,2.88,5,4.29,8.11,5.58A95.65,95.65,0,0,0,20.8,18a46.32,46.32,0,0,0,11.87,1.77c3.33,0,7.26-.2,10.17-2a5.83,5.83,0,0,0,2.75-3.6C46.05,12,44.72,10,45.24,8a1.25,1.25,0,0,0-2.41-.67,7,7,0,0,0,0,3,10.66,10.66,0,0,1,.43,2.9c-.2,1.77-2,2.71-3.54,3.19-4,1.26-8.7,1-12.81.34A67.19,67.19,0,0,1,14,13.08C10.36,11.72,5.51,10.39,3.25,7,2.36,5.69.19,6.94,1.09,8.28Z"/><path class="cls-1" d="M42.54,7.33c2.61,18.57-4.09,37.3.25,55.77.37,1.56,2.78.9,2.41-.67C40.88,44,47.55,25.21,45,6.66c-.22-1.58-2.63-.91-2.41.67Z"/><path class="cls-1" d="M3.36,7.71C8.53,3.1,16.64,3,23.2,2.61a46.14,46.14,0,0,1,11.44.55c2.86.57,7.75,1.56,8.87,4.73.54,1.51,3,.86,2.41-.66-1.31-3.7-5.4-5.18-8.9-6.09A44.2,44.2,0,0,0,24.09.06,86.49,86.49,0,0,0,11.87,1.29,21,21,0,0,0,1.59,5.94C.38,7,2.16,8.77,3.36,7.71Z"/><path class="cls-1" d="M36.88,27.58c4.26,9,1.93,19.09-.28,28.29-.19.78,1,1.12,1.2.33C40.11,46.63,42.38,36.28,38,27c-.35-.73-1.43-.1-1.08.63Z"/><path class="cls-1" d="M29,29.94a71.9,71.9,0,0,1-.82,27.15c-.18.78,1,1.12,1.2.33a73.52,73.52,0,0,0,.83-27.81c-.13-.8-1.33-.46-1.21.33Z"/><path class="cls-1" d="M21.16,28.75a58.75,58.75,0,0,1,.32,24.94c-.17.78,1,1.12,1.2.33a60.22,60.22,0,0,0-.31-25.6c-.18-.79-1.39-.46-1.21.33Z"/><path class="cls-1" d="M12.76,28.21a14.07,14.07,0,0,1,.77,5.59c0,1.59,0,3.19,0,4.78a19,19,0,0,1-2.74,9.54c-.44.68.64,1.3,1.08.63a20.27,20.27,0,0,0,2.91-10.17c.1-1.82.08-3.64,0-5.46a13.72,13.72,0,0,0-.92-5.54c-.33-.73-1.41-.1-1.08.63Z"/></g></g></svg>