<svg xmlns="http://www.w3.org/2000/svg" viewBox="0 0 189.13 255.86"><defs><style>.cls-1{fill:#fff;}</style></defs><g id="Capa_2" data-name="Capa 2"><g id="Capa_1-2" data-name="Capa 1"><path class="cls-1" d="M94.57,38.8a55.77,55.77,0,1,0,55.76,55.77A55.84,55.84,0,0,0,94.57,38.8Zm0,96.53a40.77,40.77,0,1,1,40.76-40.76A40.81,40.81,0,0,1,94.57,135.33Z"/><path class="cls-1" d="M94.57,0A94.67,94.67,0,0,0,0,94.57c0,30.07,25.22,74.87,40.25,98.9a429.71,429.71,0,0,0,29.93,42.37c15.1,18.47,20.51,20,24.39,20s9-1.55,24.09-20a439.72,439.72,0,0,0,30-42.34c15.13-24.09,40.52-69,40.52-98.91A94.67,94.67,0,0,0,94.57,0Zm43.64,181.8C118.81,213.29,101,234.56,94.48,240c-6.56-5.26-24.08-26-43.75-58.09C28,144.89,15,113.05,15,94.57a79.57,79.57,0,1,1,159.13,0C174.13,113,161,144.74,138.21,181.8Z"/></g></g></svg>