<svg xmlns="http://www.w3.org/2000/svg" viewBox="0 0 24 24"><defs><style>.cls-1{fill:#fff;}</style></defs><g id="Capa_2" data-name="Capa 2"><g id="Capa_1-2" data-name="Capa 1"><path class="cls-1" d="M12,16.81a4.7,4.7,0,0,0,3.1-8.24A4.63,4.63,0,0,0,12,7.4a4.71,4.71,0,0,0-2,.42,5,5,0,0,0-1.15.75A4.7,4.7,0,0,0,12,16.81Zm0-8.18a3.48,3.48,0,1,1-3.48,3.48A3.48,3.48,0,0,1,12,8.63ZM17.22,9H24V19.28A4.72,4.72,0,0,1,19.28,24H4.78A4.77,4.77,0,0,1,0,19.28V9H6.75a6,6,0,0,0-.87,3.11,6.11,6.11,0,1,0,12.21,0A6,6,0,0,0,17.22,9Zm2.06-9H7V5H6V0H5V5H4V.08A4.22,4.22,0,0,0,3,.35V5H2V.9A4.68,4.68,0,0,0,0,4.72V8H7.47a6.1,6.1,0,0,1,9,0H24V4.72A4.72,4.72,0,0,0,19.28,0ZM22,5.26a.74.74,0,0,1-.75.74H18.74A.74.74,0,0,1,18,5.26V2.73A.74.74,0,0,1,18.74,2h2.51a.74.74,0,0,1,.75.74Z"/></g></g></svg>